<?xml version="1.0" standalone="no"?>
<!DOCTYPE svg PUBLIC "-//W3C//DTD SVG 20010904//EN"
 "http://www.w3.org/TR/2001/REC-SVG-20010904/DTD/svg10.dtd">
<svg version="1.0" xmlns="http://www.w3.org/2000/svg"
 width="640.000000pt" height="1280.000000pt" viewBox="0 0 640.000000 1280.000000"
 preserveAspectRatio="xMidYMid meet">
<g transform="translate(0.000000,1280.000000) scale(0.100000,-0.100000)"
fill="#9c27b0" stroke="none">
<path d="M3254 12777 c-59 -40 -77 -77 -128 -267 -46 -174 -90 -454 -121 -775
-9 -93 -18 -180 -20 -191 -3 -12 -65 -84 -140 -161 l-134 -140 -61 -381 -60
-380 0 -1322 0 -1322 94 4 c88 3 98 5 141 36 25 18 50 30 54 27 5 -2 11 -355
15 -782 20 -2392 54 -4339 96 -5563 27 -772 67 -1442 87 -1460 4 -4 53 -22
108 -40 55 -18 111 -39 124 -47 18 -12 28 -13 45 -4 11 7 75 29 141 49 l120
38 7 55 c8 69 35 464 48 724 59 1193 105 3481 136 6774 l7 704 -24 -8 c-174
-55 -378 -75 -586 -57 -123 11 -243 33 -295 57 -16 6 -18 0 -18 -68 0 -42 -4
-79 -10 -82 -5 -3 -25 5 -43 19 -19 14 -49 31 -68 38 -19 6 -37 16 -41 22 -4
6 -8 504 -8 1106 0 1156 1 1182 46 1329 14 45 31 69 87 125 45 44 72 65 79 58
6 -6 6 -84 -1 -223 -20 -403 -31 -835 -38 -1540 l-6 -707 31 -16 c75 -39 177
-51 427 -51 248 0 365 14 439 52 l29 15 -6 737 c-9 985 -33 1639 -83 2256 -70
872 -174 1262 -364 1363 -51 27 -66 27 -106 -1z"/>
</g>
</svg>
